<?xml version="1.0" encoding="UTF-8"?>
<svg id="Layer_2" data-name="Layer 2" xmlns="http://www.w3.org/2000/svg" viewBox="0 0 35.26 35.26">
  <defs>
    <style>
      .cls-1 {
        fill: #4e4d4e;
        stroke-width: 0px;
      }
    </style>
  </defs>
  <g id="Layer_1-2" data-name="Layer 1">
    <g>
      <path class="cls-1" d="m17.63,35.26C7.91,35.26,0,27.35,0,17.63S7.91,0,17.63,0s17.63,7.91,17.63,17.63-7.91,17.63-17.63,17.63Zm0-34.26C8.46,1,1,8.46,1,17.63s7.46,16.63,16.63,16.63,16.63-7.46,16.63-16.63S26.8,1,17.63,1Z"/>
      <g>
        <path class="cls-1" d="m26.29,14.04c-.04-.93-.19-1.56-.4-2.11-.22-.59-.56-1.11-1.01-1.54-.44-.44-.96-.79-1.54-1-.55-.21-1.19-.36-2.11-.4-.93-.04-1.23-.05-3.59-.05s-2.66.01-3.59.05c-.93.04-1.56.19-2.11.4-.59.22-1.11.56-1.54,1.01-.44.44-.79.96-1,1.54-.21.55-.36,1.19-.4,2.11-.04.93-.05,1.23-.05,3.59s.01,2.66.05,3.59c.04.93.19,1.56.4,2.11.22.59.56,1.11,1.01,1.54.44.44.96.79,1.54,1,.55.21,1.19.36,2.11.4.93.04,1.22.05,3.59.05s2.66-.01,3.59-.05c.93-.04,1.56-.19,2.11-.4,1.17-.45,2.1-1.38,2.55-2.55.21-.55.36-1.19.4-2.11.04-.93.05-1.22.05-3.59s0-2.66-.04-3.59Zm-1.57,7.11c-.04.85-.18,1.31-.3,1.62-.29.76-.89,1.36-1.65,1.65-.31.12-.77.26-1.62.3-.92.04-1.19.05-3.52.05s-2.6-.01-3.52-.05c-.85-.04-1.31-.18-1.62-.3-.38-.14-.72-.36-1-.65-.29-.28-.51-.62-.65-1-.12-.31-.26-.77-.3-1.62-.04-.92-.05-1.19-.05-3.52s.01-2.6.05-3.52c.04-.85.18-1.31.3-1.62.14-.38.36-.72.65-1,.28-.29.62-.51,1-.65.31-.12.77-.26,1.62-.3.92-.04,1.19-.05,3.52-.05s2.6.01,3.52.05c.85.04,1.31.18,1.62.3.38.14.72.36,1,.65.29.28.51.62.65,1,.12.31.26.77.3,1.62.04.92.05,1.19.05,3.52s-.01,2.6-.05,3.51Z"/>
        <path class="cls-1" d="m17.63,13.16c-2.47,0-4.47,2-4.47,4.47s2,4.47,4.47,4.47,4.47-2,4.47-4.47-2-4.47-4.47-4.47Zm0,7.38c-1.6,0-2.9-1.3-2.9-2.9s1.3-2.9,2.9-2.9,2.9,1.3,2.9,2.9-1.3,2.9-2.9,2.9Z"/>
        <path class="cls-1" d="m23.33,12.98c0,.58-.47,1.04-1.04,1.04s-1.04-.47-1.04-1.04.47-1.04,1.04-1.04,1.04.47,1.04,1.04Z"/>
      </g>
    </g>
  </g>
</svg>