<?xml version="1.0" encoding="UTF-8"?>
<svg id="Layer_2" data-name="Layer 2" xmlns="http://www.w3.org/2000/svg" viewBox="0 0 35.26 35.26">
  <defs>
    <style>
      .cls-1 {
        fill: #4e4d4e;
        stroke-width: 0px;
      }
    </style>
  </defs>
  <g id="Layer_1-2" data-name="Layer 1">
    <g>
      <path class="cls-1" d="m17.63,35.26C7.91,35.26,0,27.35,0,17.63S7.91,0,17.63,0s17.63,7.91,17.63,17.63-7.91,17.63-17.63,17.63Zm0-34.26C8.46,1,1,8.46,1,17.63s7.46,16.63,16.63,16.63,16.63-7.46,16.63-16.63S26.8,1,17.63,1Z"/>
      <g id="_10.Linkedin" data-name="10.Linkedin">
        <g>
          <path class="cls-1" d="m26.51,25.44v-6.51c0-3.2-.69-5.64-4.42-5.64-1.8,0-3,.98-3.49,1.91h-.04v-1.62h-3.53v11.86h3.69v-5.88c0-1.55.29-3.04,2.2-3.04s1.91,1.75,1.91,3.13v5.77h3.69v.02Z"/>
          <path class="cls-1" d="m9.04,13.59h3.69v11.86h-3.69v-11.86Z"/>
          <path class="cls-1" d="m10.88,7.68c-1.18,0-2.13.95-2.13,2.13s.95,2.15,2.13,2.15,2.13-.98,2.13-2.15-.95-2.13-2.13-2.13Z"/>
        </g>
      </g>
    </g>
  </g>
</svg>