<?xml version="1.0" encoding="UTF-8"?>
<svg id="Layer_2" data-name="Layer 2" xmlns="http://www.w3.org/2000/svg" viewBox="0 0 35.26 35.26">
  <defs>
    <style>
      .cls-1 {
        fill: #4e4d4e;
        stroke-width: 0px;
      }
    </style>
  </defs>
  <g id="Layer_1-2" data-name="Layer 1">
    <g>
      <g id="mobile_phone_smartphone_iphone" data-name="mobile, phone, smartphone, iphone">
        <path class="cls-1" d="m21.47,7.15h-7.68c-.96,0-1.75.78-1.75,1.75v17.46c0,.96.78,1.75,1.75,1.75h7.68c.96,0,1.75-.78,1.75-1.75V8.9c0-.96-.78-1.75-1.75-1.75Zm.71,18.91c0,.56-.44,1.01-.98,1.01h-7.16c-.54,0-.98-.45-.98-1.01V9.2c0-.56.44-1.01.98-1.01h2.28v.34c0,.19.15.34.33.34h1.95c.18,0,.33-.15.33-.34v-.34h2.28c.54,0,.98.45.98,1.01v16.86Z"/>
      </g>
      <path class="cls-1" d="m17.63,35.26C7.91,35.26,0,27.35,0,17.63S7.91,0,17.63,0s17.63,7.91,17.63,17.63-7.91,17.63-17.63,17.63Zm0-34.26C8.46,1,1,8.46,1,17.63s7.46,16.63,16.63,16.63,16.63-7.46,16.63-16.63S26.8,1,17.63,1Z"/>
    </g>
  </g>
</svg>