<?xml version="1.0" encoding="UTF-8"?>
<svg id="Layer_2" data-name="Layer 2" xmlns="http://www.w3.org/2000/svg" viewBox="0 0 35.26 35.26">
  <defs>
    <style>
      .cls-1 {
        fill: #4e4d4e;
        stroke-width: 0px;
      }
    </style>
  </defs>
  <g id="Layer_1-2" data-name="Layer 1">
    <g>
      <path class="cls-1" d="m17.63,35.26C7.91,35.26,0,27.35,0,17.63S7.91,0,17.63,0s17.63,7.91,17.63,17.63-7.91,17.63-17.63,17.63Zm0-34.26C8.46,1,1,8.46,1,17.63s7.46,16.63,16.63,16.63,16.63-7.46,16.63-16.63S26.8,1,17.63,1Z"/>
      <path class="cls-1" d="m17.62,8.13c2.98,0,5.46,2.48,5.46,5.47,0,.7.02,1.34.06,1.94.02.37.33.64.68.64.05,0,.1,0,.16-.02l.93-.22s.08-.01.12-.01c.24,0,.46.16.51.4.08.34-.11.68-.44.8l-1.42.57c-.36.14-.55.53-.45.91,1.14,4.2,4.31,3.76,4.31,4.31,0,.69-2.39.78-2.61,1s0,1.27-.49,1.47c-.09.04-.22.05-.38.05-.36,0-.88-.07-1.42-.07-.47,0-.96.05-1.39.25-1.15.53-2.25,1.52-3.62,1.52s-2.47-.99-3.62-1.52c-.43-.2-.92-.25-1.39-.25-.54,0-1.06.07-1.42.07-.16,0-.29-.01-.38-.05-.48-.2-.28-1.25-.49-1.47s-2.61-.31-2.61-1c0-.55,3.17-.11,4.31-4.31.1-.37-.09-.76-.45-.91l-1.42-.57c-.33-.12-.52-.46-.44-.8.05-.24.27-.4.51-.4.04,0,.08,0,.12.01l.93.22c.05.01.1.02.16.02.35,0,.65-.27.68-.64.04-.59.06-1.24.06-1.94,0-2.99,2.47-5.47,5.44-5.47m0-1.18h0c-.89,0-1.76.18-2.57.53-.79.34-1.49.82-2.1,1.43-.61.61-1.09,1.32-1.42,2.11-.35.82-.53,1.69-.53,2.58,0,.44,0,.86-.03,1.27l-.35-.08c-.13-.03-.26-.05-.39-.05-.38,0-.75.13-1.05.36-.31.24-.53.59-.62.97-.2.91.3,1.84,1.18,2.16l1.04.42c-.69,2.11-1.96,2.52-2.81,2.79-.23.07-.42.13-.61.23-.74.37-.82.99-.82,1.25,0,.48.23.92.64,1.24.21.16.46.29.78.4.44.15.94.24,1.35.32.02.15.05.32.1.48.2.68.63.99.96,1.13.31.13.63.14.84.14s.43-.02.66-.03c.25-.02.51-.04.76-.04.39,0,.69.05.9.14.29.13.59.31.91.5.9.53,1.92,1.13,3.2,1.13s2.3-.6,3.2-1.13c.32-.19.63-.37.92-.5.21-.1.5-.14.9-.14.25,0,.51.02.76.04.23.02.45.03.66.03s.53-.01.84-.14c.32-.14.75-.44.96-1.13.05-.16.08-.33.1-.48.41-.08.91-.17,1.35-.32.32-.11.57-.24.78-.4.41-.32.64-.76.64-1.24,0-.25-.08-.88-.82-1.25-.19-.09-.38-.16-.61-.23-.85-.27-2.12-.68-2.81-2.79l1.04-.42c.87-.32,1.38-1.25,1.18-2.16-.09-.38-.3-.73-.62-.97-.3-.23-.67-.36-1.05-.36-.13,0-.26.02-.39.05l-.35.08c-.02-.41-.03-.83-.03-1.27,0-.89-.18-1.76-.53-2.58-.34-.79-.82-1.5-1.43-2.11-.61-.61-1.32-1.09-2.11-1.43-.82-.35-1.69-.53-2.58-.53h0Z"/>
    </g>
  </g>
</svg>