<?xml version="1.0" encoding="UTF-8"?>
<svg id="Layer_2" data-name="Layer 2" xmlns="http://www.w3.org/2000/svg" viewBox="0 0 35.26 35.26">
  <defs>
    <style>
      .cls-1 {
        fill: #4e4d4e;
        stroke-width: 0px;
      }
    </style>
  </defs>
  <g id="Layer_1-2" data-name="Layer 1">
    <g>
      <path class="cls-1" d="m17.63,35.26C7.91,35.26,0,27.35,0,17.63S7.91,0,17.63,0s17.63,7.91,17.63,17.63-7.91,17.63-17.63,17.63Zm0-34.26C8.46,1,1,8.46,1,17.63s7.46,16.63,16.63,16.63,16.63-7.46,16.63-16.63S26.8,1,17.63,1Z"/>
      <g id="Layer_3" data-name="Layer 3">
        <path class="cls-1" d="m26.15,21.63s-3.67-2.63-4.65-2.46c-.47.08-.75.41-1.29,1.05-.09.1-.3.35-.46.53-.34-.11-.68-.25-1-.41-1.67-.81-3.02-2.16-3.84-3.84-.16-.32-.3-.66-.41-1,.18-.16.43-.37.54-.46.64-.54.97-.81,1.05-1.29.17-.98-2.43-4.62-2.46-4.65-.24-.34-.62-.56-1.04-.59-1.05,0-4.07,3.91-4.07,4.56,0,.04.06,3.93,4.85,8.8,4.87,4.79,8.76,4.84,8.8,4.84.66,0,4.56-3.01,4.56-4.07-.03-.42-.24-.8-.59-1.04Zm-4.05,3.88c-.53-.04-3.79-.47-7.87-4.48-4.03-4.1-4.45-7.37-4.49-7.88.8-1.25,1.76-2.38,2.86-3.38.02.02.06.06.1.11.84,1.15,1.57,2.38,2.17,3.68-.19.2-.4.38-.62.55-.33.26-.64.54-.92.86l-.15.21.04.25c.13.56.33,1.09.59,1.6.93,1.92,2.48,3.47,4.4,4.4.51.26,1.05.46,1.6.59l.25.04.21-.15c.32-.28.61-.59.87-.92.19-.23.44-.53.54-.62,1.3.6,2.54,1.33,3.69,2.17.05.04.09.08.11.1-.99,1.1-2.13,2.06-3.38,2.86h0Z"/>
      </g>
    </g>
  </g>
</svg>