<?xml version="1.0" encoding="UTF-8"?>
<svg id="Layer_2" data-name="Layer 2" xmlns="http://www.w3.org/2000/svg" viewBox="0 0 35.26 35.26">
  <defs>
    <style>
      .cls-1 {
        fill: #4e4d4e;
        stroke-width: 0px;
      }
    </style>
  </defs>
  <g id="Layer_1-2" data-name="Layer 1">
    <g>
      <path class="cls-1" d="m17.63,35.26C7.91,35.26,0,27.35,0,17.63S7.91,0,17.63,0s17.63,7.91,17.63,17.63-7.91,17.63-17.63,17.63Zm0-34.26C8.46,1,1,8.46,1,17.63s7.46,16.63,16.63,16.63,16.63-7.46,16.63-16.63S26.8,1,17.63,1Z"/>
      <path class="cls-1" d="m19.25,16.29l6.36-7.39h-1.51l-5.52,6.42-4.41-6.42h-5.09l6.67,9.7-6.67,7.75h1.51l5.83-6.78,4.66,6.78h5.09l-6.92-10.06h0Zm-2.06,2.4l-.68-.97-5.38-7.69h2.31l4.34,6.21.68.97,5.64,8.07h-2.31l-4.6-6.58h0Z"/>
    </g>
  </g>
</svg>